Coordinates
version=1
nRows=14
nColumns=42
inDegrees=yes

Units are S.I. units (second, meters, Newtons, ...)
If the header above contains a line with 'inDegrees', this indicates whether rotational values are in degrees (yes) or radians (no).

endheader
time	pelvis_tilt	pelvis_list	pelvis_rotation	pelvis_tx	pelvis_ty	pelvis_tz	hip_flexion_r	hip_adduction_r	hip_rotation_r	knee_angle_r	knee_adduction_r	knee_angle_r_beta	ankle_angle_r	subtalar_angle_r	mtp_angle_r	hip_flexion_l	hip_adduction_l	hip_rotation_l	knee_angle_l	knee_adduction_l	knee_angle_l_beta	ankle_angle_l	subtalar_angle_l	mtp_angle_l	lumbar_extension	lumbar_bending	lumbar_rotation	arm_flex_r	arm_add_r	arm_rot_r	elbow_flex_r	pro_sup_r	wrist_flex_r	wrist_dev_r	arm_flex_l	arm_add_l	arm_rot_l	elbow_flex_l	pro_sup_l	wrist_flex_l	wrist_dev_l
      1.96000000	      0.91273655	      0.60900632	     -7.38033603	      0.11006506	      0.86524833	     -0.17177415	    -20.86018396	     -8.26835409	      0.56189904	     15.88855581	     13.81069947	      0.27730761	     11.47973761	      6.02165506	     -7.50503811	     22.38162002	     -7.55291533	     -5.45595581	     12.59367387	     15.35459837	      0.21980107	     -3.29225174	     -5.97324595	     -7.50503811	    -14.93672081	     -1.90073586	      4.29189712	     -2.62730238	    -13.71845586	     -4.78714127	     19.51016895	     90.00000001	      0.00000000	      0.00000000	    -11.98347647	     -6.64537278	      1.51833170	     20.17562301	     90.00000001	      0.00000000	      0.00000000
      1.97000000	      0.82668641	      0.90960249	     -7.17151148	      0.12200208	      0.86573770	     -0.17316757	    -19.99102783	     -9.02113118	     -0.70368948	     19.02789221	     13.95057648	      0.33209937	     10.17461907	      8.01314271	     -7.50451898	     22.27662162	     -7.04790632	     -3.40110819	     13.04828550	     15.81162959	      0.22773554	     -5.12743885	     -8.70037428	     -7.50451898	    -14.94884179	     -2.28047067	      4.00053130	     -2.81290759	    -13.63062572	     -5.18101413	     19.28472487	     90.00000001	      0.00000000	      0.00000000	    -11.81616190	     -6.85738976	      1.33121051	     20.15258307	     90.00000001	      0.00000000	      0.00000000
      1.98000000	      1.16180344	      1.02112408	     -6.98191562	      0.13434958	      0.86713485	     -0.17437924	    -19.86292801	     -9.54995729	     -0.66483007	     21.26445627	     14.24435199	      0.37113478	      7.61141778	      7.62111313	     -7.50443315	     21.76930503	     -6.81103282	     -2.81980028	     14.16084813	     16.15715277	      0.24715342	     -5.38713232	     -8.62733374	     -7.50443315	    -15.42974556	     -2.50888937	      3.74596194	     -3.03808129	    -13.60091715	     -5.18666267	     19.17747538	     90.00000001	      0.00000000	      0.00000000	    -11.64860307	     -7.08219678	      1.31865966	     20.20636926	     90.00000001	      0.00000000	      0.00000000
      1.99000000	      1.35352521	      1.12210322	     -6.75964444	      0.14651089	      0.86853263	     -0.17568046	    -19.27190046	    -10.09148235	     -0.90144261	     24.05618889	     14.49804314	      0.41985970	      4.96306708	      7.30229922	     -7.50433068	     21.39281129	     -6.59611259	     -2.31757774	     15.25276297	     16.48819592	      0.26621093	     -5.29252600	     -8.55283956	     -7.50433068	    -15.76387065	     -2.68315068	      3.48077292	     -3.25883688	    -13.56758303	     -5.22970570	     19.01953184	     90.00000001	      0.00000000	      0.00000000	    -11.45790182	     -7.29496518	      1.27526562	     20.24419280	     90.00000001	      0.00000000	      0.00000000
      2.00000000	      1.46788949	      1.21422268	     -6.51752206	      0.15850112	      0.86999066	     -0.17705505	    -18.34103127	    -10.64177325	     -1.29442397	     27.24417148	     14.66428496	      0.47550049	      2.36290848	      7.22616316	     -7.50424377	     21.00105896	     -6.38169962	     -1.80723466	     16.15131465	     16.82043958	      0.28189362	     -4.92406952	     -8.54684774	     -7.50424377	    -16.02094845	     -2.80961023	      3.20545614	     -3.45248016	    -13.54639007	     -5.31576027	     18.82639896	     90.00000001	      0.00000000	      0.00000000	    -11.25435727	     -7.52147644	      1.20552950	     20.26707181	     90.00000001	      0.00000000	      0.00000000
      2.01000000	      1.61971577	      1.25841390	     -6.30523928	      0.17036649	      0.87168730	     -0.17826064	    -17.27827352	    -11.12561668	     -1.59367823	     30.56000143	     14.71754780	      0.53337264	     -0.33819657	      7.11051103	     -7.50417304	     20.44080077	     -6.22457323	     -1.40175511	     16.88177558	     17.12758322	      0.29464257	     -4.13614965	     -8.43586970	     -7.50417304	    -16.33692320	     -2.89829087	      2.94835195	     -3.62665070	    -13.50648308	     -5.36912872	     18.67294274	     90.00000001	      0.00000000	      0.00000000	    -11.05308547	     -7.75000039	      1.15589089	     20.34373657	     90.00000001	      0.00000000	      0.00000000
      2.02000000	      1.19954964	      1.39329242	     -6.00834805	      0.18162667	      0.87246961	     -0.17994845	    -15.13052762	    -11.73987768	     -2.44556328	     34.74266538	     14.49223113	      0.60637390	     -2.09598031	      7.99130899	     -7.50398578	     20.71120647	     -5.94557898	     -1.41652244	     17.99933944	     17.21282454	      0.31414774	     -3.15210521	     -7.61088995	     -7.50398578	    -16.03253700	     -2.94391300	      2.66095471	     -3.86261518	    -13.51037639	     -5.42954961	     18.48963463	     90.00000001	      0.00000000	      0.00000000	    -10.81552152	     -7.91934198	      1.11256021	     20.37815255	     90.00000001	      0.00000000	      0.00000000
      2.03000000	      1.45325204	      1.35032720	     -5.80479400	      0.19332994	      0.87454159	     -0.18101707	    -13.99791689	    -12.05543800	     -2.28842878	     37.86445356	     14.45580877	      0.66085938	     -4.40157037	      7.33311361	     -7.50392045	     19.77084822	     -5.88573328	     -1.19095253	     18.28896756	     17.52315039	      0.31920270	     -2.00121266	     -7.22019363	     -7.50392045	    -16.45744210	     -2.92749361	      2.43579392	     -4.02065740	    -13.50484679	     -5.43865969	     18.36742253	     90.00000001	      0.00000000	      0.00000000	    -10.62117898	     -8.15571451	      1.09389510	     20.56210803	     90.00000001	      0.00000000	      0.00000000
      2.04000000	      1.37568951	      1.36430062	     -5.60717793	      0.20459365	      0.87616155	     -0.18214955	    -12.24543435	    -12.37750359	     -2.03916876	     41.22063908	     14.34769708	      0.71943587	     -6.09821235	      6.25062043	     -7.50382407	     19.22007068	     -5.75688341	     -1.18615222	     18.61188236	     17.68021623	      0.32483863	     -0.80139898	     -6.48993581	     -7.50382407	    -16.52845442	     -2.91582181	      2.22861724	     -4.20043114	    -13.50334415	     -5.40318071	     18.25897388	     90.00000001	      0.00000000	      0.00000000	    -10.41480029	     -8.41371956	      1.09549609	     20.72704024	     90.00000001	      0.00000000	      0.00000000
      2.05000000	      0.94302470	      1.41180914	     -5.37454705	      0.21543747	      0.87726318	     -0.18348554	     -9.94035576	    -12.71701484	     -1.57365982	     44.61263673	     14.39091354	      0.77863740	     -7.00998052	      4.94982105	     -7.50363542	     19.23814005	     -5.55296845	     -1.60276269	     19.34708215	     17.55835617	      0.33767028	      0.32657273	     -5.18329707	     -7.50363542	    -16.20243675	     -2.87119187	      2.02063732	     -4.40596964	    -13.50731767	     -5.38840962	     18.10873408	     90.00000001	      0.00000000	      0.00000000	    -10.18409739	     -8.61335628	      1.11045858	     20.81125181	     90.00000001	      0.00000000	      0.00000000
      2.06000000	      0.96116831	      1.31490409	     -5.22064241	      0.22656634	      0.87914322	     -0.18434518	     -8.23307109	    -12.74072675	     -1.12159438	     47.46137273	     14.11870327	      0.82835722	     -7.54721310	      3.49132760	     -7.50354954	     18.34434183	     -5.56516718	     -1.62467564	     19.24523147	     17.73715366	      0.33589265	      1.48087969	     -4.41141541	     -7.50354954	    -16.35635733	     -2.74220606	      1.85366349	     -4.55373082	    -13.51388177	     -5.35048171	     18.02440767	     90.00000001	      0.00000000	      0.00000000	    -10.02264046	     -8.84126993	      1.11559284	     21.06739361	     90.00000001	      0.00000000	      0.00000000
      2.07000000	      0.77390947	      1.26826989	     -5.02405697	      0.23729402	      0.88076200	     -0.18534931	     -6.22620787	    -12.77959561	     -0.57907052	     50.16986629	     13.95403772	      0.87562935	     -7.45353013	      1.74366976	     -7.50345951	     17.73977573	     -5.47874267	     -1.71800163	     19.19432688	     17.77224096	      0.33500420	      2.37950512	     -3.58130498	     -7.50345951	    -16.30591519	     -2.62268418	      1.68252351	     -4.71028925	    -13.53844396	     -5.30850445	     17.93195813	     90.00000001	      0.00000000	      0.00000000	     -9.79975150	     -9.08430519	      1.14538356	     21.28302565	     90.00000001	      0.00000000	      0.00000000
      2.08000000	      0.61039856	      1.17105539	     -4.83331195	      0.24807223	      0.88246193	     -0.18630739	     -4.27779258	    -12.71470324	     -0.13994621	     52.54415048	     13.72210773	      0.91706843	     -6.80015373	      0.02919320	     -7.50337656	     17.04074815	     -5.44091208	     -1.83534086	     19.05944309	     17.77202994	      0.33265004	      3.17125457	     -2.80174871	     -7.50337656	    -16.24037227	     -2.42880312	      1.49610307	     -4.86904335	    -13.54052791	     -5.27263665	     17.85288169	     90.00000001	      0.00000000	      0.00000000	     -9.63619993	     -9.26855240	      1.18596286	     21.49109936	     90.00000001	      0.00000000	      0.00000000
      2.09000000	      0.27121925	      1.08591952	     -4.63584133	      0.25846357	      0.88388612	     -0.18741068	     -2.09713929	    -12.63953970	      0.52829883	     54.69691153	     13.70568793	      0.95464120	     -5.95638201	     -2.06396117	     -7.50318766	     16.69984285	     -5.36448778	     -2.23194299	     19.26605913	     17.59791064	      0.33625617	      3.94482217	     -1.68254581	     -7.50318766	    -15.98955170	     -2.20867808	      1.34545865	     -5.02326270	    -13.59166770	     -5.26860903	     17.77294097	     90.00000001	      0.00000000	      0.00000000	     -9.41007683	     -9.44728682	      1.27648944	     21.65212290	     90.00000001	      0.00000000	      0.00000000
